<svg xmlns="http://www.w3.org/2000/svg" xmlns:xlink="http://www.w3.org/1999/xlink" width="24" height="24" viewBox="0 0 24 24">
    <defs>
        <path id="a" d="M0 0h24v24H0z"/>
    </defs>
    <g fill="none" fill-rule="evenodd">
        <mask id="b" fill="#fff">
            <use xlink:href="#a"/>
        </mask>
        <g fill="#9B9B9B" mask="url(#b)">
            <path d="M20.696 11.397l.084.073 3 3a.754.754 0 0 1 .092.11l.031.051a.705.705 0 0 1 .047.099l.011.031a.728.728 0 0 1 .027.103l.008.066.002.019.001.023L24 15a.763.763 0 0 1-.074.326l-.023.043a.778.778 0 0 1-.032.051l-.026.034.004-.002a.75.75 0 0 1-.005.006l-.011.011-.004.008-.049.053-3 3a.75.75 0 0 1-1.133-.976l.073-.084 1.719-1.72H10.5a.75.75 0 0 1-.743-.648L9.75 15a.75.75 0 0 1 .648-.743l.102-.007h10.939l-1.72-1.72a.75.75 0 0 1-.072-.976l.073-.084a.75.75 0 0 1 .976-.073zM3.22 5.47a.75.75 0 0 1 1.06 1.06L2.56 8.25H13.5a.75.75 0 0 1 .102 1.493l-.102.007H2.56l1.72 1.72a.75.75 0 0 1 .073.976l-.073.084a.75.75 0 0 1-1.06 0l-3-3-.064-.072A.753.753 0 0 1 0 9v-.016c0-.02.002-.041.004-.061L0 9a.754.754 0 0 1 .22-.53l-.069.078A.754.754 0 0 1 .22 8.47z"/>
        </g>
    </g>
</svg>
